<mxfile host="app.diagrams.net" modified="2023-04-10T02:58:13.244Z" agent="Mozilla/5.0 (Macintosh; Intel Mac OS X 10_15_7) AppleWebKit/537.36 (KHTML, like Gecko) Chrome/112.0.0.0 Safari/537.36" version="21.1.5" etag="sLJbftUxz6oLCP4WjO8E" type="github">
  <diagram name="Page-1" id="7BNTPPkjZYaOKXkMH68d">
    <mxGraphModel>
      <root>
        <mxCell id="0" />
        <mxCell id="1" parent="0" />
      </root>
    </mxGraphModel>
  </diagram>
</mxfile>
